# xmcd
#
# Track frame offsets:
#	150
#	17536
#	36735
#	50769
#	66597
#	81236
#	102216
#	118765
#	134581
#	152311
#	169940
#	181149
#
# Disc length: 3046 seconds
#
# Revision: 1
# Processed by: cddbd v1.5.2PL0 Copyright (c) Steve Scherf et al.
# Submitted via: audiograbber 1.83.01
#
DISCID=a70be40c
DTITLE=Seasick Steve - Man From Another Time
DYEAR=2009
DGENRE=Blues
TTITLE0=Diddley Bo
TTITLE1=Big Green And Yeller
TTITLE2=Happy (To Have A Job)
TTITLE3=The Banjo Song
TTITLE4=Man From Another Time
TTITLE5=That's All
TTITLE6=Just Because I Can ( CSX)
TTITLE7=Never Go West
TTITLE8=Dark
TTITLE9=Wenatchee
TTITLE10=My Home (Blue Eyes )
TTITLE11=Seasick Boogie
EXTD=
EXTT0=
EXTT1=
EXTT2=
EXTT3=
EXTT4=
EXTT5=
EXTT6=
EXTT7=
EXTT8=
EXTT9=
EXTT10=
EXTT11=
PLAYORDER=
